
<svg width="100" height="100" viewBox="0 0 100 100" fill="none" xmlns="http://www.w3.org/2000/svg">

<!-- 머리 -->
<path d="M84.8487 68.5C83.6487 72.9 79.0154 76.6667 76.8487 78C58.8487 88.4 35.6821 81.6667 26.3487 77C21.9487 74.2 20.5154 70.5 20.3487 69C19.9487 70.2 19.5154 70.5 19.3487 70.5C17.7487 70.9 18.0154 66 18.3487 63.5C16.7487 64.7 16.3487 64 16.3487 63.5C15.1487 61.1 18.5154 56.8333 20.3487 55C21.9487 30.6 26.3487 23.1667 28.3487 22.5C37.8487 11 46.8487 13 46.8487 12.5C46.8487 12 44.8487 11.5 44.3487 10.5C43.9487 9.7 44.5154 9.16667 44.8487 9C45.6487 8.2 50.8487 10.3333 53.3487 11.5L51.3487 9C50.5487 7.8 51.6821 7.16667 52.3487 7C56.7487 7.8 60.8487 11.3333 62.3487 13C72.8487 16.5 73.8487 21 77.8487 24.5C81.0487 27.3 83.1821 44.3333 83.8487 52.5L85.3487 55C88.1487 58.6 88.8487 61.1667 88.8487 62C88.8487 63.6 87.5154 63.3333 86.8487 63V68C86.8487 69.2 85.8487 70.1667 85.3487 70.5C84.9487 70.5 84.8487 69.1667 84.8487 68.5Z" stroke="black" fill='white'/>
<!-- 아랫입 -->
<path d="M72.3487 77.4999C66.3487 80.3332 50.0487 84.1999 32.8487 76.9999C40.3487 76.3332 58.7487 75.4999 72.3487 77.4999Z" fill="#F5AB3F" stroke="black"/>
<!-- 윗입 -->
<path d="M26.8487 64.5002C27.5154 63.6669 28.9487 62.1002 29.3487 62.5002L33.8487 62.5C35.8487 61.6667 39.8487 59.9 39.8487 59.5C39.8487 59 45.8487 55.5 52.8487 55C54.8487 55.1667 60.2487 56.3 65.8487 59.5C67.3487 60.5002 70.6487 62.5004 71.8487 62.5002C73.3487 62.5 79.8487 62.5005 78.8487 64.5002V66.0002L74.8487 70H73.8487L75.3487 67C74.6821 67.6667 73.3487 69.1 73.3487 69.5C73.3487 70 75.8487 74 75.3487 75C75.3487 76.1667 74.3487 78.4 70.3487 78C64.5154 76.8333 52.8487 74.7 52.8487 75.5C51.1821 75.3333 44.9487 75.6 33.3487 78C32.0154 77.8333 29.5487 77 30.3487 75L31.748 70.3359L26.8487 66.0002V64.5002Z" fill="#F8AB3E" stroke='black'/>
<!-- hand2 엄지척 -->
<path d="M16.8487 92.9999H35.3487C37.3487 93.3999 37.8487 91.1665 37.8487 89.9999C37.8487 86.7999 32.8487 86.9999 30.3487 87.4999C35.5487 87.4999 36.8487 85.4999 36.8487 84.4999C35.8487 78.9999 27.3487 82.4999 27.3487 81.9999C27.3487 81.4999 31.3487 80.9999 32.8487 80.9999C34.0487 80.9999 34.6821 79.6665 34.8487 78.9999C34.4487 76.5999 32.0154 75.9999 30.8487 75.9999C26.9289 75.9999 23.9591 77.6942 21.7769 80M16.8487 92.9999V89.9999C17.0271 89.0012 17.3489 87.7889 17.8348 86.5C18.3883 85.0316 19.1548 83.464 20.1647 81.9999C20.6458 81.3024 21.1821 80.6285 21.7769 80M16.8487 92.9999L12.3487 78.9999C11.5154 75.9999 11.6487 71.3999 18.8487 76.9999C19.3008 77.3333 20.5194 78.4001 21.7769 80" stroke="black" fill='white'/>
<!-- hand1-->
<path d="M16.8487 90C17.6821 85.3333 21.6487 76 30.8487 76C32.0154 76 34.4487 76.6 34.8487 79C34.6821 79.6667 34.0487 81 32.8487 81C31.3487 81 27.3487 81.5 27.3487 82C27.3487 82.5 35.8487 79 36.8487 84.5C36.8487 85.5 35.5487 87.5 30.3487 87.5C32.8487 87 37.8487 86.8 37.8487 90C37.8487 91.1667 37.3487 93.4 35.3487 93H16.8487V90Z" stroke="black" fill='white'/>
<!-- 왼쪽눈 -->
<ellipse cx="35.8487" cy="49" rx="4.5" ry="7.5" fill="black"/>
<!-- 오른쪽눈 -->
<ellipse cx="69.8487" cy="49" rx="4.5" ry="7.5" fill="black"/>
<!-- 왼쪽콧구멍 -->
<circle cx="44.3487" cy="64.5" r="1" fill="black"/>
<!-- 오른쪽콧구멍 -->
<circle cx="61.3487" cy="64.5" r="1" fill="black"/>
<!-- 콧주름 -->
<path d="M43.8487 72.4998C46.8487 71.6665 54.5487 70.4998 61.3487 72.4998" stroke="black"/>
</svg>
